<svg xmlns="http://www.w3.org/2000/svg" viewBox="0 0 64 64" role="img" aria-label="SWAN">
  <rect width="64" height="64" rx="14" fill="#E4EFF7"/>
  <svg x="7" y="7" width="50" height="50" viewBox="-4 2 114 114">
<g fill="#22ACE3">
    <!-- body, flowing into the longest wing feather -->
    <path d="M97 66c5 16 1 32-13 41-17 11-43 10-62-2-8-5-15-11-21-19 20 11 45 13 65 4 14-6 24-15 31-24z"/>
    <!-- middle feather -->
    <path d="M86 62c-6 13-18 23-35 27-16 4-34 2-48-6 17 4 35 2 49-5 13-6 24-11 34-16z"/>
    <!-- top feather -->
    <path d="M77 56c-5 10-15 17-28 20-12 3-25 1-35-4 13 2 26 0 36-5 10-4 19-8 27-11z"/>
    <!-- neck: down from the head, bending left, then back right into the body -->
    <path d="M67 16c-21 14-28 40-17 62 8 16 24 27 43 32l4-13c-15-4-28-13-34-25-8-17-4-35 12-46z"/>
    <!-- head -->
    <ellipse cx="72" cy="14" rx="8.5" ry="9"/>
    <!-- beak -->
    <path d="M79 9l19 7-18 6z"/>
  </g>
  </svg>
</svg>
